<mxfile host="app.diagrams.net" modified="2020-11-27T07:13:49.538Z" agent="5.0 (Windows NT 10.0; WOW64) AppleWebKit/537.36 (KHTML, like Gecko) Chrome/70.0.3538.25 Safari/537.36 Core/1.70.3756.400 QQBrowser/10.5.4039.400" etag="-YGYpAOmwMvwYD3uuQmF" version="13.10.3" type="github">
  <diagram id="C5RBs43oDa-KdzZeNtuy" name="Page-1">
    <mxGraphModel dx="807" dy="549" grid="1" gridSize="10" guides="1" tooltips="1" connect="1" arrows="1" fold="1" page="1" pageScale="1" pageWidth="827" pageHeight="1169" math="0" shadow="0">
      <root>
        <mxCell id="WIyWlLk6GJQsqaUBKTNV-0" />
        <mxCell id="WIyWlLk6GJQsqaUBKTNV-1" parent="WIyWlLk6GJQsqaUBKTNV-0" />
        <mxCell id="WIyWlLk6GJQsqaUBKTNV-2" value="" style="rounded=0;html=1;jettySize=auto;orthogonalLoop=1;fontSize=11;endArrow=block;endFill=0;endSize=8;strokeWidth=1;shadow=0;labelBackgroundColor=none;edgeStyle=orthogonalEdgeStyle;" parent="WIyWlLk6GJQsqaUBKTNV-1" source="WIyWlLk6GJQsqaUBKTNV-3" target="WIyWlLk6GJQsqaUBKTNV-6" edge="1">
          <mxGeometry relative="1" as="geometry" />
        </mxCell>
        <mxCell id="WIyWlLk6GJQsqaUBKTNV-3" value="下行接收PMWS" style="rounded=1;whiteSpace=wrap;html=1;fontSize=12;glass=0;strokeWidth=1;shadow=0;fillColor=#008a00;strokeColor=#005700;fontColor=#ffffff;" parent="WIyWlLk6GJQsqaUBKTNV-1" vertex="1">
          <mxGeometry x="150" y="110" width="120" height="40" as="geometry" />
        </mxCell>
        <mxCell id="WIyWlLk6GJQsqaUBKTNV-4" value="Yes" style="rounded=0;html=1;jettySize=auto;orthogonalLoop=1;fontSize=11;endArrow=block;endFill=0;endSize=8;strokeWidth=1;shadow=0;labelBackgroundColor=none;edgeStyle=orthogonalEdgeStyle;" parent="WIyWlLk6GJQsqaUBKTNV-1" source="WIyWlLk6GJQsqaUBKTNV-6" target="WIyWlLk6GJQsqaUBKTNV-10" edge="1">
          <mxGeometry y="20" relative="1" as="geometry">
            <mxPoint as="offset" />
          </mxGeometry>
        </mxCell>
        <mxCell id="WIyWlLk6GJQsqaUBKTNV-5" value="No" style="edgeStyle=orthogonalEdgeStyle;rounded=0;html=1;jettySize=auto;orthogonalLoop=1;fontSize=11;endArrow=block;endFill=0;endSize=8;strokeWidth=1;shadow=0;labelBackgroundColor=none;fillColor=#e51400;" parent="WIyWlLk6GJQsqaUBKTNV-1" source="WIyWlLk6GJQsqaUBKTNV-6" target="WIyWlLk6GJQsqaUBKTNV-7" edge="1">
          <mxGeometry y="10" relative="1" as="geometry">
            <mxPoint as="offset" />
          </mxGeometry>
        </mxCell>
        <mxCell id="WIyWlLk6GJQsqaUBKTNV-6" value="是否为对应模板" style="rhombus;whiteSpace=wrap;html=1;shadow=0;fontFamily=Helvetica;fontSize=12;align=center;strokeWidth=1;spacing=6;spacingTop=-4;" parent="WIyWlLk6GJQsqaUBKTNV-1" vertex="1">
          <mxGeometry x="160" y="200" width="100" height="80" as="geometry" />
        </mxCell>
        <mxCell id="WIyWlLk6GJQsqaUBKTNV-7" value="200014" style="rounded=1;whiteSpace=wrap;html=1;fontSize=12;glass=0;strokeWidth=1;shadow=0;" parent="WIyWlLk6GJQsqaUBKTNV-1" vertex="1">
          <mxGeometry y="220" width="120" height="40" as="geometry" />
        </mxCell>
        <mxCell id="WIyWlLk6GJQsqaUBKTNV-9" value="Yes" style="edgeStyle=orthogonalEdgeStyle;rounded=0;html=1;jettySize=auto;orthogonalLoop=1;fontSize=11;endArrow=block;endFill=0;endSize=8;strokeWidth=1;shadow=0;labelBackgroundColor=none;" parent="WIyWlLk6GJQsqaUBKTNV-1" source="WIyWlLk6GJQsqaUBKTNV-10" target="WIyWlLk6GJQsqaUBKTNV-12" edge="1">
          <mxGeometry x="-1" y="92" relative="1" as="geometry">
            <mxPoint x="70" y="-32" as="offset" />
          </mxGeometry>
        </mxCell>
        <mxCell id="Qs7cppLmvNbrVErr3oMY-2" value="" style="edgeStyle=orthogonalEdgeStyle;rounded=0;orthogonalLoop=1;jettySize=auto;html=1;" edge="1" parent="WIyWlLk6GJQsqaUBKTNV-1" source="WIyWlLk6GJQsqaUBKTNV-10" target="WIyWlLk6GJQsqaUBKTNV-12">
          <mxGeometry relative="1" as="geometry" />
        </mxCell>
        <mxCell id="Qs7cppLmvNbrVErr3oMY-10" value="" style="edgeStyle=orthogonalEdgeStyle;rounded=0;orthogonalLoop=1;jettySize=auto;html=1;" edge="1" parent="WIyWlLk6GJQsqaUBKTNV-1" source="WIyWlLk6GJQsqaUBKTNV-10" target="Qs7cppLmvNbrVErr3oMY-9">
          <mxGeometry relative="1" as="geometry" />
        </mxCell>
        <mxCell id="WIyWlLk6GJQsqaUBKTNV-10" value="接入平台ID是否正确" style="rhombus;whiteSpace=wrap;html=1;shadow=0;fontFamily=Helvetica;fontSize=12;align=center;strokeWidth=1;spacing=6;spacingTop=-4;" parent="WIyWlLk6GJQsqaUBKTNV-1" vertex="1">
          <mxGeometry x="160" y="320" width="100" height="80" as="geometry" />
        </mxCell>
        <mxCell id="WIyWlLk6GJQsqaUBKTNV-12" value="100002" style="rounded=1;whiteSpace=wrap;html=1;fontSize=12;glass=0;strokeWidth=1;shadow=0;" parent="WIyWlLk6GJQsqaUBKTNV-1" vertex="1">
          <mxGeometry y="340" width="120" height="40" as="geometry" />
        </mxCell>
        <mxCell id="Qs7cppLmvNbrVErr3oMY-1" value="" style="edgeStyle=orthogonalEdgeStyle;rounded=0;orthogonalLoop=1;jettySize=auto;html=1;" edge="1" parent="WIyWlLk6GJQsqaUBKTNV-1" source="Qs7cppLmvNbrVErr3oMY-0" target="WIyWlLk6GJQsqaUBKTNV-3">
          <mxGeometry relative="1" as="geometry" />
        </mxCell>
        <mxCell id="Qs7cppLmvNbrVErr3oMY-0" value="业务请求" style="ellipse;whiteSpace=wrap;html=1;fillColor=#1ba1e2;strokeColor=#006EAF;fontColor=#ffffff;" vertex="1" parent="WIyWlLk6GJQsqaUBKTNV-1">
          <mxGeometry x="150" width="120" height="80" as="geometry" />
        </mxCell>
        <mxCell id="Qs7cppLmvNbrVErr3oMY-4" value="100001" style="whiteSpace=wrap;html=1;rounded=1;shadow=0;strokeWidth=1;glass=0;" vertex="1" parent="WIyWlLk6GJQsqaUBKTNV-1">
          <mxGeometry y="460" width="120" height="40" as="geometry" />
        </mxCell>
        <mxCell id="Qs7cppLmvNbrVErr3oMY-6" value="NO" style="text;html=1;align=center;verticalAlign=middle;resizable=0;points=[];autosize=1;" vertex="1" parent="WIyWlLk6GJQsqaUBKTNV-1">
          <mxGeometry x="130" y="460" width="30" height="20" as="geometry" />
        </mxCell>
        <mxCell id="Qs7cppLmvNbrVErr3oMY-11" value="" style="edgeStyle=orthogonalEdgeStyle;rounded=0;orthogonalLoop=1;jettySize=auto;html=1;" edge="1" parent="WIyWlLk6GJQsqaUBKTNV-1" source="Qs7cppLmvNbrVErr3oMY-9" target="Qs7cppLmvNbrVErr3oMY-4">
          <mxGeometry relative="1" as="geometry" />
        </mxCell>
        <mxCell id="Qs7cppLmvNbrVErr3oMY-19" value="" style="edgeStyle=orthogonalEdgeStyle;rounded=0;orthogonalLoop=1;jettySize=auto;html=1;" edge="1" parent="WIyWlLk6GJQsqaUBKTNV-1" source="Qs7cppLmvNbrVErr3oMY-9" target="Qs7cppLmvNbrVErr3oMY-18">
          <mxGeometry relative="1" as="geometry" />
        </mxCell>
        <mxCell id="Qs7cppLmvNbrVErr3oMY-9" value="是否允许请求IP" style="rhombus;whiteSpace=wrap;html=1;shadow=0;fontFamily=Helvetica;fontSize=12;align=center;strokeWidth=1;spacing=6;spacingTop=-4;" vertex="1" parent="WIyWlLk6GJQsqaUBKTNV-1">
          <mxGeometry x="160" y="440" width="100" height="80" as="geometry" />
        </mxCell>
        <mxCell id="Qs7cppLmvNbrVErr3oMY-13" value="200009" style="whiteSpace=wrap;html=1;rounded=1;shadow=0;strokeWidth=1;glass=0;" vertex="1" parent="WIyWlLk6GJQsqaUBKTNV-1">
          <mxGeometry y="590" width="120" height="40" as="geometry" />
        </mxCell>
        <mxCell id="Qs7cppLmvNbrVErr3oMY-15" value="NO" style="text;html=1;align=center;verticalAlign=middle;resizable=0;points=[];autosize=1;" vertex="1" parent="WIyWlLk6GJQsqaUBKTNV-1">
          <mxGeometry x="130" y="585" width="30" height="20" as="geometry" />
        </mxCell>
        <mxCell id="Qs7cppLmvNbrVErr3oMY-20" value="" style="edgeStyle=orthogonalEdgeStyle;rounded=0;orthogonalLoop=1;jettySize=auto;html=1;" edge="1" parent="WIyWlLk6GJQsqaUBKTNV-1" source="Qs7cppLmvNbrVErr3oMY-18" target="Qs7cppLmvNbrVErr3oMY-13">
          <mxGeometry relative="1" as="geometry" />
        </mxCell>
        <mxCell id="Qs7cppLmvNbrVErr3oMY-22" value="" style="edgeStyle=orthogonalEdgeStyle;rounded=0;orthogonalLoop=1;jettySize=auto;html=1;" edge="1" parent="WIyWlLk6GJQsqaUBKTNV-1" source="Qs7cppLmvNbrVErr3oMY-18" target="Qs7cppLmvNbrVErr3oMY-21">
          <mxGeometry relative="1" as="geometry" />
        </mxCell>
        <mxCell id="Qs7cppLmvNbrVErr3oMY-18" value="模板状态是否正确" style="rhombus;whiteSpace=wrap;html=1;shadow=0;fontFamily=Helvetica;fontSize=12;align=center;strokeWidth=1;spacing=6;spacingTop=-4;" vertex="1" parent="WIyWlLk6GJQsqaUBKTNV-1">
          <mxGeometry x="160" y="570" width="100" height="80" as="geometry" />
        </mxCell>
        <mxCell id="Qs7cppLmvNbrVErr3oMY-26" value="" style="edgeStyle=orthogonalEdgeStyle;rounded=0;orthogonalLoop=1;jettySize=auto;html=1;" edge="1" parent="WIyWlLk6GJQsqaUBKTNV-1" source="Qs7cppLmvNbrVErr3oMY-21" target="Qs7cppLmvNbrVErr3oMY-25">
          <mxGeometry relative="1" as="geometry" />
        </mxCell>
        <mxCell id="Qs7cppLmvNbrVErr3oMY-36" style="edgeStyle=orthogonalEdgeStyle;rounded=0;orthogonalLoop=1;jettySize=auto;html=1;exitX=1;exitY=0.5;exitDx=0;exitDy=0;entryX=1;entryY=0.5;entryDx=0;entryDy=0;" edge="1" parent="WIyWlLk6GJQsqaUBKTNV-1" source="Qs7cppLmvNbrVErr3oMY-21" target="Qs7cppLmvNbrVErr3oMY-30">
          <mxGeometry relative="1" as="geometry" />
        </mxCell>
        <mxCell id="Qs7cppLmvNbrVErr3oMY-21" value="是否开启黑名单验证" style="rhombus;whiteSpace=wrap;html=1;shadow=0;fontFamily=Helvetica;fontSize=12;align=center;strokeWidth=1;spacing=6;spacingTop=-4;" vertex="1" parent="WIyWlLk6GJQsqaUBKTNV-1">
          <mxGeometry x="160" y="690" width="100" height="80" as="geometry" />
        </mxCell>
        <mxCell id="Qs7cppLmvNbrVErr3oMY-23" value="Yes" style="text;html=1;align=center;verticalAlign=middle;resizable=0;points=[];autosize=1;" vertex="1" parent="WIyWlLk6GJQsqaUBKTNV-1">
          <mxGeometry x="210" y="530" width="40" height="20" as="geometry" />
        </mxCell>
        <mxCell id="Qs7cppLmvNbrVErr3oMY-24" value="Yes" style="text;html=1;align=center;verticalAlign=middle;resizable=0;points=[];autosize=1;" vertex="1" parent="WIyWlLk6GJQsqaUBKTNV-1">
          <mxGeometry x="200" y="660" width="40" height="20" as="geometry" />
        </mxCell>
        <mxCell id="Qs7cppLmvNbrVErr3oMY-31" value="" style="edgeStyle=orthogonalEdgeStyle;rounded=0;orthogonalLoop=1;jettySize=auto;html=1;" edge="1" parent="WIyWlLk6GJQsqaUBKTNV-1" source="Qs7cppLmvNbrVErr3oMY-25" target="Qs7cppLmvNbrVErr3oMY-30">
          <mxGeometry relative="1" as="geometry" />
        </mxCell>
        <mxCell id="Qs7cppLmvNbrVErr3oMY-43" style="edgeStyle=orthogonalEdgeStyle;rounded=0;orthogonalLoop=1;jettySize=auto;html=1;exitX=0;exitY=0.5;exitDx=0;exitDy=0;entryX=1;entryY=0.5;entryDx=0;entryDy=0;" edge="1" parent="WIyWlLk6GJQsqaUBKTNV-1" source="Qs7cppLmvNbrVErr3oMY-25" target="Qs7cppLmvNbrVErr3oMY-41">
          <mxGeometry relative="1" as="geometry" />
        </mxCell>
        <mxCell id="Qs7cppLmvNbrVErr3oMY-25" value="验证号码是否再黑名单中" style="rhombus;whiteSpace=wrap;html=1;shadow=0;fontFamily=Helvetica;fontSize=12;align=center;strokeWidth=1;spacing=6;spacingTop=-4;" vertex="1" parent="WIyWlLk6GJQsqaUBKTNV-1">
          <mxGeometry x="160" y="820" width="100" height="80" as="geometry" />
        </mxCell>
        <mxCell id="Qs7cppLmvNbrVErr3oMY-29" value="Yes" style="text;html=1;align=center;verticalAlign=middle;resizable=0;points=[];autosize=1;" vertex="1" parent="WIyWlLk6GJQsqaUBKTNV-1">
          <mxGeometry x="210" y="780" width="40" height="20" as="geometry" />
        </mxCell>
        <mxCell id="Qs7cppLmvNbrVErr3oMY-34" value="" style="edgeStyle=orthogonalEdgeStyle;rounded=0;orthogonalLoop=1;jettySize=auto;html=1;" edge="1" parent="WIyWlLk6GJQsqaUBKTNV-1" source="Qs7cppLmvNbrVErr3oMY-30" target="Qs7cppLmvNbrVErr3oMY-33">
          <mxGeometry relative="1" as="geometry" />
        </mxCell>
        <mxCell id="Qs7cppLmvNbrVErr3oMY-30" value="是否开启白名单验证" style="rhombus;whiteSpace=wrap;html=1;shadow=0;fontFamily=Helvetica;fontSize=12;align=center;strokeWidth=1;spacing=6;spacingTop=-4;" vertex="1" parent="WIyWlLk6GJQsqaUBKTNV-1">
          <mxGeometry x="160" y="940" width="100" height="80" as="geometry" />
        </mxCell>
        <mxCell id="Qs7cppLmvNbrVErr3oMY-32" value="Yes" style="text;html=1;align=center;verticalAlign=middle;resizable=0;points=[];autosize=1;" vertex="1" parent="WIyWlLk6GJQsqaUBKTNV-1">
          <mxGeometry x="210" y="900" width="40" height="20" as="geometry" />
        </mxCell>
        <mxCell id="Qs7cppLmvNbrVErr3oMY-46" style="edgeStyle=orthogonalEdgeStyle;rounded=0;orthogonalLoop=1;jettySize=auto;html=1;exitX=0;exitY=0.5;exitDx=0;exitDy=0;entryX=1;entryY=0.5;entryDx=0;entryDy=0;" edge="1" parent="WIyWlLk6GJQsqaUBKTNV-1" source="Qs7cppLmvNbrVErr3oMY-33" target="Qs7cppLmvNbrVErr3oMY-45">
          <mxGeometry relative="1" as="geometry" />
        </mxCell>
        <mxCell id="Qs7cppLmvNbrVErr3oMY-49" value="" style="edgeStyle=orthogonalEdgeStyle;rounded=0;orthogonalLoop=1;jettySize=auto;html=1;" edge="1" parent="WIyWlLk6GJQsqaUBKTNV-1" source="Qs7cppLmvNbrVErr3oMY-33" target="Qs7cppLmvNbrVErr3oMY-48">
          <mxGeometry relative="1" as="geometry" />
        </mxCell>
        <mxCell id="Qs7cppLmvNbrVErr3oMY-33" value="验证号码是否再白名单中" style="rhombus;whiteSpace=wrap;html=1;shadow=0;fontFamily=Helvetica;fontSize=12;align=center;strokeWidth=1;spacing=6;spacingTop=-4;" vertex="1" parent="WIyWlLk6GJQsqaUBKTNV-1">
          <mxGeometry x="160" y="1060" width="100" height="80" as="geometry" />
        </mxCell>
        <mxCell id="Qs7cppLmvNbrVErr3oMY-35" value="Yes" style="text;html=1;align=center;verticalAlign=middle;resizable=0;points=[];autosize=1;" vertex="1" parent="WIyWlLk6GJQsqaUBKTNV-1">
          <mxGeometry x="200" y="1030" width="40" height="20" as="geometry" />
        </mxCell>
        <mxCell id="Qs7cppLmvNbrVErr3oMY-37" value="NO" style="text;html=1;align=center;verticalAlign=middle;resizable=0;points=[];autosize=1;" vertex="1" parent="WIyWlLk6GJQsqaUBKTNV-1">
          <mxGeometry x="125" y="340" width="30" height="20" as="geometry" />
        </mxCell>
        <mxCell id="Qs7cppLmvNbrVErr3oMY-38" value="NO" style="text;html=1;align=center;verticalAlign=middle;resizable=0;points=[];autosize=1;" vertex="1" parent="WIyWlLk6GJQsqaUBKTNV-1">
          <mxGeometry x="275" y="810" width="30" height="20" as="geometry" />
        </mxCell>
        <mxCell id="Qs7cppLmvNbrVErr3oMY-41" value="200041" style="rounded=1;whiteSpace=wrap;html=1;" vertex="1" parent="WIyWlLk6GJQsqaUBKTNV-1">
          <mxGeometry y="835" width="120" height="50" as="geometry" />
        </mxCell>
        <mxCell id="Qs7cppLmvNbrVErr3oMY-44" value="NO" style="text;html=1;align=center;verticalAlign=middle;resizable=0;points=[];autosize=1;" vertex="1" parent="WIyWlLk6GJQsqaUBKTNV-1">
          <mxGeometry x="135" y="840" width="30" height="20" as="geometry" />
        </mxCell>
        <mxCell id="Qs7cppLmvNbrVErr3oMY-45" value="200042" style="rounded=1;whiteSpace=wrap;html=1;" vertex="1" parent="WIyWlLk6GJQsqaUBKTNV-1">
          <mxGeometry y="1080" width="120" height="40" as="geometry" />
        </mxCell>
        <mxCell id="Qs7cppLmvNbrVErr3oMY-47" value="NO" style="text;html=1;align=center;verticalAlign=middle;resizable=0;points=[];autosize=1;" vertex="1" parent="WIyWlLk6GJQsqaUBKTNV-1">
          <mxGeometry x="125" y="1080" width="30" height="20" as="geometry" />
        </mxCell>
        <mxCell id="Qs7cppLmvNbrVErr3oMY-52" style="edgeStyle=orthogonalEdgeStyle;rounded=0;orthogonalLoop=1;jettySize=auto;html=1;exitX=0;exitY=0.5;exitDx=0;exitDy=0;" edge="1" parent="WIyWlLk6GJQsqaUBKTNV-1" source="Qs7cppLmvNbrVErr3oMY-48" target="Qs7cppLmvNbrVErr3oMY-50">
          <mxGeometry relative="1" as="geometry" />
        </mxCell>
        <mxCell id="Qs7cppLmvNbrVErr3oMY-54" value="" style="edgeStyle=orthogonalEdgeStyle;rounded=0;orthogonalLoop=1;jettySize=auto;html=1;" edge="1" parent="WIyWlLk6GJQsqaUBKTNV-1" source="Qs7cppLmvNbrVErr3oMY-48" target="Qs7cppLmvNbrVErr3oMY-53">
          <mxGeometry relative="1" as="geometry" />
        </mxCell>
        <mxCell id="Qs7cppLmvNbrVErr3oMY-48" value="模板内容字数是否达到限制数" style="rhombus;whiteSpace=wrap;html=1;shadow=0;fontFamily=Helvetica;fontSize=12;align=center;strokeWidth=1;spacing=6;spacingTop=-4;" vertex="1" parent="WIyWlLk6GJQsqaUBKTNV-1">
          <mxGeometry x="160" y="1200" width="100" height="80" as="geometry" />
        </mxCell>
        <mxCell id="Qs7cppLmvNbrVErr3oMY-50" value="200012" style="rounded=1;whiteSpace=wrap;html=1;" vertex="1" parent="WIyWlLk6GJQsqaUBKTNV-1">
          <mxGeometry y="1220" width="110" height="40" as="geometry" />
        </mxCell>
        <mxCell id="Qs7cppLmvNbrVErr3oMY-59" value="" style="edgeStyle=orthogonalEdgeStyle;rounded=0;orthogonalLoop=1;jettySize=auto;html=1;" edge="1" parent="WIyWlLk6GJQsqaUBKTNV-1" source="Qs7cppLmvNbrVErr3oMY-53" target="Qs7cppLmvNbrVErr3oMY-58">
          <mxGeometry relative="1" as="geometry" />
        </mxCell>
        <mxCell id="Qs7cppLmvNbrVErr3oMY-87" style="edgeStyle=orthogonalEdgeStyle;rounded=0;orthogonalLoop=1;jettySize=auto;html=1;exitX=0;exitY=0.5;exitDx=0;exitDy=0;entryX=1;entryY=0.5;entryDx=0;entryDy=0;" edge="1" parent="WIyWlLk6GJQsqaUBKTNV-1" source="Qs7cppLmvNbrVErr3oMY-53" target="Qs7cppLmvNbrVErr3oMY-86">
          <mxGeometry relative="1" as="geometry" />
        </mxCell>
        <mxCell id="Qs7cppLmvNbrVErr3oMY-53" value="模板是否在有效期" style="rhombus;whiteSpace=wrap;html=1;shadow=0;fontFamily=Helvetica;fontSize=12;align=center;strokeWidth=1;spacing=6;spacingTop=-4;" vertex="1" parent="WIyWlLk6GJQsqaUBKTNV-1">
          <mxGeometry x="160" y="1320" width="100" height="80" as="geometry" />
        </mxCell>
        <mxCell id="Qs7cppLmvNbrVErr3oMY-55" value="Yes" style="text;html=1;align=center;verticalAlign=middle;resizable=0;points=[];autosize=1;" vertex="1" parent="WIyWlLk6GJQsqaUBKTNV-1">
          <mxGeometry x="210" y="1160" width="40" height="20" as="geometry" />
        </mxCell>
        <mxCell id="Qs7cppLmvNbrVErr3oMY-56" value="NO" style="text;html=1;align=center;verticalAlign=middle;resizable=0;points=[];autosize=1;" vertex="1" parent="WIyWlLk6GJQsqaUBKTNV-1">
          <mxGeometry x="115" y="1210" width="30" height="20" as="geometry" />
        </mxCell>
        <mxCell id="Qs7cppLmvNbrVErr3oMY-57" value="Yes" style="text;html=1;align=center;verticalAlign=middle;resizable=0;points=[];autosize=1;" vertex="1" parent="WIyWlLk6GJQsqaUBKTNV-1">
          <mxGeometry x="200" y="1290" width="40" height="20" as="geometry" />
        </mxCell>
        <mxCell id="Qs7cppLmvNbrVErr3oMY-90" style="edgeStyle=orthogonalEdgeStyle;rounded=0;orthogonalLoop=1;jettySize=auto;html=1;exitX=0;exitY=0.5;exitDx=0;exitDy=0;entryX=1;entryY=0.75;entryDx=0;entryDy=0;" edge="1" parent="WIyWlLk6GJQsqaUBKTNV-1" source="Qs7cppLmvNbrVErr3oMY-58" target="Qs7cppLmvNbrVErr3oMY-89">
          <mxGeometry relative="1" as="geometry" />
        </mxCell>
        <mxCell id="Qs7cppLmvNbrVErr3oMY-93" value="" style="edgeStyle=orthogonalEdgeStyle;rounded=0;orthogonalLoop=1;jettySize=auto;html=1;" edge="1" parent="WIyWlLk6GJQsqaUBKTNV-1" source="Qs7cppLmvNbrVErr3oMY-58" target="Qs7cppLmvNbrVErr3oMY-92">
          <mxGeometry relative="1" as="geometry" />
        </mxCell>
        <mxCell id="Qs7cppLmvNbrVErr3oMY-58" value="接入端口是否正确" style="rhombus;whiteSpace=wrap;html=1;shadow=0;fontFamily=Helvetica;fontSize=12;align=center;strokeWidth=1;spacing=6;spacingTop=-4;" vertex="1" parent="WIyWlLk6GJQsqaUBKTNV-1">
          <mxGeometry x="160" y="1440" width="100" height="80" as="geometry" />
        </mxCell>
        <mxCell id="Qs7cppLmvNbrVErr3oMY-85" value="Yes" style="text;html=1;align=center;verticalAlign=middle;resizable=0;points=[];autosize=1;" vertex="1" parent="WIyWlLk6GJQsqaUBKTNV-1">
          <mxGeometry x="200" y="1410" width="40" height="20" as="geometry" />
        </mxCell>
        <mxCell id="Qs7cppLmvNbrVErr3oMY-86" value="200008" style="rounded=1;whiteSpace=wrap;html=1;" vertex="1" parent="WIyWlLk6GJQsqaUBKTNV-1">
          <mxGeometry y="1345" width="120" height="30" as="geometry" />
        </mxCell>
        <mxCell id="Qs7cppLmvNbrVErr3oMY-88" value="NO" style="text;html=1;align=center;verticalAlign=middle;resizable=0;points=[];autosize=1;" vertex="1" parent="WIyWlLk6GJQsqaUBKTNV-1">
          <mxGeometry x="135" y="1340" width="30" height="20" as="geometry" />
        </mxCell>
        <mxCell id="Qs7cppLmvNbrVErr3oMY-89" value="200006" style="rounded=1;whiteSpace=wrap;html=1;" vertex="1" parent="WIyWlLk6GJQsqaUBKTNV-1">
          <mxGeometry y="1460" width="110" height="30" as="geometry" />
        </mxCell>
        <mxCell id="Qs7cppLmvNbrVErr3oMY-91" value="NO" style="text;html=1;align=center;verticalAlign=middle;resizable=0;points=[];autosize=1;" vertex="1" parent="WIyWlLk6GJQsqaUBKTNV-1">
          <mxGeometry x="115" y="1450" width="30" height="20" as="geometry" />
        </mxCell>
        <mxCell id="Qs7cppLmvNbrVErr3oMY-97" style="edgeStyle=orthogonalEdgeStyle;rounded=0;orthogonalLoop=1;jettySize=auto;html=1;exitX=0.5;exitY=1;exitDx=0;exitDy=0;entryX=0.5;entryY=0;entryDx=0;entryDy=0;" edge="1" parent="WIyWlLk6GJQsqaUBKTNV-1" source="Qs7cppLmvNbrVErr3oMY-92" target="Qs7cppLmvNbrVErr3oMY-95">
          <mxGeometry relative="1" as="geometry" />
        </mxCell>
        <mxCell id="Qs7cppLmvNbrVErr3oMY-99" value="" style="edgeStyle=orthogonalEdgeStyle;rounded=0;orthogonalLoop=1;jettySize=auto;html=1;" edge="1" parent="WIyWlLk6GJQsqaUBKTNV-1" source="Qs7cppLmvNbrVErr3oMY-92" target="Qs7cppLmvNbrVErr3oMY-98">
          <mxGeometry relative="1" as="geometry" />
        </mxCell>
        <mxCell id="Qs7cppLmvNbrVErr3oMY-92" value="密码是否正确" style="rhombus;whiteSpace=wrap;html=1;shadow=0;fontFamily=Helvetica;fontSize=12;align=center;strokeWidth=1;spacing=6;spacingTop=-4;" vertex="1" parent="WIyWlLk6GJQsqaUBKTNV-1">
          <mxGeometry x="314" y="1440" width="100" height="80" as="geometry" />
        </mxCell>
        <mxCell id="Qs7cppLmvNbrVErr3oMY-94" value="Yes" style="text;html=1;align=center;verticalAlign=middle;resizable=0;points=[];autosize=1;" vertex="1" parent="WIyWlLk6GJQsqaUBKTNV-1">
          <mxGeometry x="270" y="1450" width="40" height="20" as="geometry" />
        </mxCell>
        <mxCell id="Qs7cppLmvNbrVErr3oMY-95" value="100003" style="rounded=1;whiteSpace=wrap;html=1;" vertex="1" parent="WIyWlLk6GJQsqaUBKTNV-1">
          <mxGeometry x="304" y="1570" width="120" height="40" as="geometry" />
        </mxCell>
        <mxCell id="Qs7cppLmvNbrVErr3oMY-96" style="edgeStyle=orthogonalEdgeStyle;rounded=0;orthogonalLoop=1;jettySize=auto;html=1;exitX=0.5;exitY=1;exitDx=0;exitDy=0;" edge="1" parent="WIyWlLk6GJQsqaUBKTNV-1" source="Qs7cppLmvNbrVErr3oMY-95" target="Qs7cppLmvNbrVErr3oMY-95">
          <mxGeometry relative="1" as="geometry" />
        </mxCell>
        <mxCell id="Qs7cppLmvNbrVErr3oMY-101" style="edgeStyle=orthogonalEdgeStyle;rounded=0;orthogonalLoop=1;jettySize=auto;html=1;exitX=0.5;exitY=1;exitDx=0;exitDy=0;" edge="1" parent="WIyWlLk6GJQsqaUBKTNV-1" source="Qs7cppLmvNbrVErr3oMY-98" target="Qs7cppLmvNbrVErr3oMY-100">
          <mxGeometry relative="1" as="geometry" />
        </mxCell>
        <mxCell id="Qs7cppLmvNbrVErr3oMY-105" style="edgeStyle=orthogonalEdgeStyle;rounded=0;orthogonalLoop=1;jettySize=auto;html=1;exitX=0.5;exitY=0;exitDx=0;exitDy=0;" edge="1" parent="WIyWlLk6GJQsqaUBKTNV-1" source="Qs7cppLmvNbrVErr3oMY-98">
          <mxGeometry relative="1" as="geometry">
            <mxPoint x="520" y="770" as="targetPoint" />
          </mxGeometry>
        </mxCell>
        <mxCell id="Qs7cppLmvNbrVErr3oMY-98" value="子业务ID是否正确" style="rhombus;whiteSpace=wrap;html=1;shadow=0;fontFamily=Helvetica;fontSize=12;align=center;strokeWidth=1;spacing=6;spacingTop=-4;" vertex="1" parent="WIyWlLk6GJQsqaUBKTNV-1">
          <mxGeometry x="470" y="1440" width="100" height="80" as="geometry" />
        </mxCell>
        <mxCell id="Qs7cppLmvNbrVErr3oMY-100" value="100004" style="rounded=1;whiteSpace=wrap;html=1;" vertex="1" parent="WIyWlLk6GJQsqaUBKTNV-1">
          <mxGeometry x="460" y="1570" width="120" height="40" as="geometry" />
        </mxCell>
        <mxCell id="Qs7cppLmvNbrVErr3oMY-102" value="Yes" style="text;html=1;align=center;verticalAlign=middle;resizable=0;points=[];autosize=1;" vertex="1" parent="WIyWlLk6GJQsqaUBKTNV-1">
          <mxGeometry x="410" y="1460" width="40" height="20" as="geometry" />
        </mxCell>
        <mxCell id="Qs7cppLmvNbrVErr3oMY-103" value="NO" style="text;html=1;align=center;verticalAlign=middle;resizable=0;points=[];autosize=1;" vertex="1" parent="WIyWlLk6GJQsqaUBKTNV-1">
          <mxGeometry x="365" y="1520" width="30" height="20" as="geometry" />
        </mxCell>
        <mxCell id="Qs7cppLmvNbrVErr3oMY-104" value="NO" style="text;html=1;align=center;verticalAlign=middle;resizable=0;points=[];autosize=1;" vertex="1" parent="WIyWlLk6GJQsqaUBKTNV-1">
          <mxGeometry x="525" y="1530" width="30" height="20" as="geometry" />
        </mxCell>
        <mxCell id="Qs7cppLmvNbrVErr3oMY-106" value="Yes" style="text;html=1;align=center;verticalAlign=middle;resizable=0;points=[];autosize=1;" vertex="1" parent="WIyWlLk6GJQsqaUBKTNV-1">
          <mxGeometry x="480" y="1360" width="40" height="20" as="geometry" />
        </mxCell>
        <mxCell id="Qs7cppLmvNbrVErr3oMY-109" style="edgeStyle=orthogonalEdgeStyle;rounded=0;orthogonalLoop=1;jettySize=auto;html=1;exitX=1;exitY=1;exitDx=0;exitDy=0;entryX=0;entryY=0.5;entryDx=0;entryDy=0;" edge="1" parent="WIyWlLk6GJQsqaUBKTNV-1" source="Qs7cppLmvNbrVErr3oMY-107" target="Qs7cppLmvNbrVErr3oMY-110">
          <mxGeometry relative="1" as="geometry">
            <mxPoint x="650" y="840" as="targetPoint" />
            <Array as="points">
              <mxPoint x="555" y="730" />
              <mxPoint x="590" y="730" />
              <mxPoint x="590" y="875" />
            </Array>
          </mxGeometry>
        </mxCell>
        <mxCell id="Qs7cppLmvNbrVErr3oMY-107" value="业务类型是否为营销" style="rhombus;whiteSpace=wrap;html=1;" vertex="1" parent="WIyWlLk6GJQsqaUBKTNV-1">
          <mxGeometry x="450" y="690" width="140" height="80" as="geometry" />
        </mxCell>
        <mxCell id="Qs7cppLmvNbrVErr3oMY-115" style="edgeStyle=orthogonalEdgeStyle;rounded=0;orthogonalLoop=1;jettySize=auto;html=1;exitX=1;exitY=0;exitDx=0;exitDy=0;" edge="1" parent="WIyWlLk6GJQsqaUBKTNV-1" source="Qs7cppLmvNbrVErr3oMY-110">
          <mxGeometry relative="1" as="geometry">
            <mxPoint x="800" y="760" as="targetPoint" />
            <Array as="points">
              <mxPoint x="760" y="760" />
              <mxPoint x="800" y="760" />
            </Array>
          </mxGeometry>
        </mxCell>
        <mxCell id="Qs7cppLmvNbrVErr3oMY-116" style="edgeStyle=orthogonalEdgeStyle;rounded=0;orthogonalLoop=1;jettySize=auto;html=1;exitX=1;exitY=1;exitDx=0;exitDy=0;" edge="1" parent="WIyWlLk6GJQsqaUBKTNV-1" source="Qs7cppLmvNbrVErr3oMY-110">
          <mxGeometry relative="1" as="geometry">
            <mxPoint x="800" y="1000" as="targetPoint" />
            <Array as="points">
              <mxPoint x="760" y="1000" />
            </Array>
          </mxGeometry>
        </mxCell>
        <mxCell id="Qs7cppLmvNbrVErr3oMY-110" value="判断号码归属运营商" style="rhombus;whiteSpace=wrap;html=1;" vertex="1" parent="WIyWlLk6GJQsqaUBKTNV-1">
          <mxGeometry x="670" y="835" width="120" height="80" as="geometry" />
        </mxCell>
        <mxCell id="Qs7cppLmvNbrVErr3oMY-114" value="No" style="text;html=1;align=center;verticalAlign=middle;resizable=0;points=[];autosize=1;" vertex="1" parent="WIyWlLk6GJQsqaUBKTNV-1">
          <mxGeometry x="525" y="780" width="30" height="20" as="geometry" />
        </mxCell>
        <mxCell id="Qs7cppLmvNbrVErr3oMY-136" style="edgeStyle=orthogonalEdgeStyle;rounded=0;orthogonalLoop=1;jettySize=auto;html=1;exitX=0.25;exitY=1;exitDx=0;exitDy=0;exitPerimeter=0;" edge="1" parent="WIyWlLk6GJQsqaUBKTNV-1" source="Qs7cppLmvNbrVErr3oMY-117">
          <mxGeometry relative="1" as="geometry">
            <mxPoint x="1050" y="1080" as="targetPoint" />
            <Array as="points">
              <mxPoint x="825" y="1080" />
            </Array>
          </mxGeometry>
        </mxCell>
        <mxCell id="Qs7cppLmvNbrVErr3oMY-117" value="移动" style="shape=tape;whiteSpace=wrap;html=1;strokeWidth=2;size=0.19" vertex="1" parent="WIyWlLk6GJQsqaUBKTNV-1">
          <mxGeometry x="800" y="965" width="100" height="65" as="geometry" />
        </mxCell>
        <mxCell id="Qs7cppLmvNbrVErr3oMY-120" value="" style="edgeStyle=orthogonalEdgeStyle;rounded=0;orthogonalLoop=1;jettySize=auto;html=1;" edge="1" parent="WIyWlLk6GJQsqaUBKTNV-1" source="Qs7cppLmvNbrVErr3oMY-118" target="Qs7cppLmvNbrVErr3oMY-119">
          <mxGeometry relative="1" as="geometry" />
        </mxCell>
        <mxCell id="Qs7cppLmvNbrVErr3oMY-118" value="联通、电信" style="shape=tape;whiteSpace=wrap;html=1;strokeWidth=2;size=0.19" vertex="1" parent="WIyWlLk6GJQsqaUBKTNV-1">
          <mxGeometry x="800" y="730" width="100" height="65" as="geometry" />
        </mxCell>
        <mxCell id="Qs7cppLmvNbrVErr3oMY-123" style="edgeStyle=orthogonalEdgeStyle;rounded=0;orthogonalLoop=1;jettySize=auto;html=1;exitX=1;exitY=1;exitDx=0;exitDy=0;" edge="1" parent="WIyWlLk6GJQsqaUBKTNV-1" source="Qs7cppLmvNbrVErr3oMY-119">
          <mxGeometry relative="1" as="geometry">
            <mxPoint x="1050" y="840" as="targetPoint" />
            <Array as="points">
              <mxPoint x="1010" y="840" />
            </Array>
          </mxGeometry>
        </mxCell>
        <mxCell id="Qs7cppLmvNbrVErr3oMY-119" value="是否有异网模板" style="rhombus;whiteSpace=wrap;html=1;strokeWidth=2;" vertex="1" parent="WIyWlLk6GJQsqaUBKTNV-1">
          <mxGeometry x="950" y="722.5" width="80" height="80" as="geometry" />
        </mxCell>
        <mxCell id="Qs7cppLmvNbrVErr3oMY-124" value="No" style="text;html=1;align=center;verticalAlign=middle;resizable=0;points=[];autosize=1;" vertex="1" parent="WIyWlLk6GJQsqaUBKTNV-1">
          <mxGeometry x="1005" y="800" width="30" height="20" as="geometry" />
        </mxCell>
        <mxCell id="Qs7cppLmvNbrVErr3oMY-125" value="端口为30或31" style="strokeWidth=2;html=1;shape=mxgraph.flowchart.decision;whiteSpace=wrap;" vertex="1" parent="WIyWlLk6GJQsqaUBKTNV-1">
          <mxGeometry x="1050" y="785" width="100" height="100" as="geometry" />
        </mxCell>
        <mxCell id="Qs7cppLmvNbrVErr3oMY-127" style="edgeStyle=orthogonalEdgeStyle;rounded=0;orthogonalLoop=1;jettySize=auto;html=1;exitX=0.5;exitY=1;exitDx=0;exitDy=0;exitPerimeter=0;fillColor=#0050ef;strokeColor=#001DBC;" edge="1" parent="WIyWlLk6GJQsqaUBKTNV-1" source="Qs7cppLmvNbrVErr3oMY-126">
          <mxGeometry relative="1" as="geometry">
            <mxPoint x="1240" y="740" as="targetPoint" />
            <Array as="points">
              <mxPoint x="1135" y="740" />
              <mxPoint x="1240" y="740" />
            </Array>
          </mxGeometry>
        </mxCell>
        <mxCell id="Qs7cppLmvNbrVErr3oMY-142" style="edgeStyle=orthogonalEdgeStyle;rounded=0;orthogonalLoop=1;jettySize=auto;html=1;exitX=0.5;exitY=0;exitDx=0;exitDy=0;exitPerimeter=0;endArrow=halfCircle;endFill=0;fillColor=#e51400;strokeColor=#B20000;" edge="1" parent="WIyWlLk6GJQsqaUBKTNV-1" source="Qs7cppLmvNbrVErr3oMY-126">
          <mxGeometry relative="1" as="geometry">
            <mxPoint x="1200" y="940" as="targetPoint" />
            <Array as="points">
              <mxPoint x="1135" y="940" />
              <mxPoint x="1200" y="940" />
            </Array>
          </mxGeometry>
        </mxCell>
        <mxCell id="Qs7cppLmvNbrVErr3oMY-126" value="" style="strokeWidth=2;html=1;shape=mxgraph.flowchart.annotation_1;align=left;pointerEvents=1;direction=west;" vertex="1" parent="WIyWlLk6GJQsqaUBKTNV-1">
          <mxGeometry x="1110" y="785" width="50" height="100" as="geometry" />
        </mxCell>
        <mxCell id="Qs7cppLmvNbrVErr3oMY-129" value="31端口" style="text;html=1;align=center;verticalAlign=middle;resizable=0;points=[];autosize=1;" vertex="1" parent="WIyWlLk6GJQsqaUBKTNV-1">
          <mxGeometry x="1130" y="740" width="50" height="20" as="geometry" />
        </mxCell>
        <mxCell id="Qs7cppLmvNbrVErr3oMY-130" value="30端口" style="text;html=1;align=center;verticalAlign=middle;resizable=0;points=[];autosize=1;" vertex="1" parent="WIyWlLk6GJQsqaUBKTNV-1">
          <mxGeometry x="1140" y="895" width="50" height="20" as="geometry" />
        </mxCell>
        <mxCell id="Qs7cppLmvNbrVErr3oMY-132" value="队列:pm-ws-10658831-other" style="strokeWidth=2;html=1;shape=mxgraph.flowchart.start_1;whiteSpace=wrap;" vertex="1" parent="WIyWlLk6GJQsqaUBKTNV-1">
          <mxGeometry x="1240" y="710" width="159" height="60" as="geometry" />
        </mxCell>
        <mxCell id="Qs7cppLmvNbrVErr3oMY-144" style="edgeStyle=orthogonalEdgeStyle;rounded=0;orthogonalLoop=1;jettySize=auto;html=1;exitX=0;exitY=0.5;exitDx=0;exitDy=0;exitPerimeter=0;endArrow=halfCircle;endFill=0;fillColor=#e51400;strokeColor=#B20000;" edge="1" parent="WIyWlLk6GJQsqaUBKTNV-1" source="Qs7cppLmvNbrVErr3oMY-133">
          <mxGeometry relative="1" as="geometry">
            <mxPoint x="1200" y="940" as="targetPoint" />
          </mxGeometry>
        </mxCell>
        <mxCell id="Qs7cppLmvNbrVErr3oMY-133" value="队列:pm-ws-10658830-other" style="strokeWidth=2;html=1;shape=mxgraph.flowchart.start_1;whiteSpace=wrap;" vertex="1" parent="WIyWlLk6GJQsqaUBKTNV-1">
          <mxGeometry x="1241" y="905" width="159" height="60" as="geometry" />
        </mxCell>
        <mxCell id="Qs7cppLmvNbrVErr3oMY-134" value="端口为30或31" style="rhombus;whiteSpace=wrap;html=1;strokeWidth=2;" vertex="1" parent="WIyWlLk6GJQsqaUBKTNV-1">
          <mxGeometry x="1050" y="1030" width="110" height="100" as="geometry" />
        </mxCell>
        <mxCell id="Qs7cppLmvNbrVErr3oMY-140" style="edgeStyle=orthogonalEdgeStyle;rounded=0;orthogonalLoop=1;jettySize=auto;html=1;exitX=0;exitY=0;exitDx=0;exitDy=0;exitPerimeter=0;fillColor=#0050ef;strokeColor=#001DBC;" edge="1" parent="WIyWlLk6GJQsqaUBKTNV-1" source="Qs7cppLmvNbrVErr3oMY-138">
          <mxGeometry relative="1" as="geometry">
            <mxPoint x="1240" y="740" as="targetPoint" />
            <Array as="points">
              <mxPoint x="1200" y="1130" />
              <mxPoint x="1200" y="740" />
            </Array>
          </mxGeometry>
        </mxCell>
        <mxCell id="Qs7cppLmvNbrVErr3oMY-145" style="edgeStyle=orthogonalEdgeStyle;rounded=0;orthogonalLoop=1;jettySize=auto;html=1;exitX=0.5;exitY=1;exitDx=0;exitDy=0;exitPerimeter=0;endArrow=halfCircle;endFill=0;fillColor=#e51400;strokeColor=#B20000;" edge="1" parent="WIyWlLk6GJQsqaUBKTNV-1" source="Qs7cppLmvNbrVErr3oMY-138">
          <mxGeometry relative="1" as="geometry">
            <mxPoint x="1200" y="940" as="targetPoint" />
            <Array as="points">
              <mxPoint x="1135" y="940" />
            </Array>
          </mxGeometry>
        </mxCell>
        <mxCell id="Qs7cppLmvNbrVErr3oMY-138" value="" style="strokeWidth=2;html=1;shape=mxgraph.flowchart.annotation_1;align=left;pointerEvents=1;direction=west;" vertex="1" parent="WIyWlLk6GJQsqaUBKTNV-1">
          <mxGeometry x="1110" y="1030" width="50" height="100" as="geometry" />
        </mxCell>
        <mxCell id="Qs7cppLmvNbrVErr3oMY-146" value="" style="strokeWidth=2;html=1;shape=mxgraph.flowchart.annotation_2;align=left;labelPosition=right;pointerEvents=1;direction=west;" vertex="1" parent="WIyWlLk6GJQsqaUBKTNV-1">
          <mxGeometry x="1400" y="730" width="70" height="210" as="geometry" />
        </mxCell>
        <mxCell id="Qs7cppLmvNbrVErr3oMY-150" value="" style="edgeStyle=orthogonalEdgeStyle;rounded=0;orthogonalLoop=1;jettySize=auto;html=1;endArrow=classic;endFill=1;" edge="1" parent="WIyWlLk6GJQsqaUBKTNV-1" source="Qs7cppLmvNbrVErr3oMY-147" target="Qs7cppLmvNbrVErr3oMY-149">
          <mxGeometry relative="1" as="geometry" />
        </mxCell>
        <mxCell id="Qs7cppLmvNbrVErr3oMY-147" value="mtdispose处理" style="rounded=1;whiteSpace=wrap;html=1;fillColor=#008a00;strokeColor=#005700;fontColor=#ffffff;" vertex="1" parent="WIyWlLk6GJQsqaUBKTNV-1">
          <mxGeometry x="1470" y="810" width="120" height="50" as="geometry" />
        </mxCell>
        <mxCell id="Qs7cppLmvNbrVErr3oMY-153" value="" style="edgeStyle=orthogonalEdgeStyle;rounded=0;orthogonalLoop=1;jettySize=auto;html=1;endArrow=classic;endFill=1;" edge="1" parent="WIyWlLk6GJQsqaUBKTNV-1" source="Qs7cppLmvNbrVErr3oMY-149" target="Qs7cppLmvNbrVErr3oMY-152">
          <mxGeometry relative="1" as="geometry" />
        </mxCell>
        <mxCell id="Qs7cppLmvNbrVErr3oMY-158" style="edgeStyle=orthogonalEdgeStyle;rounded=0;orthogonalLoop=1;jettySize=auto;html=1;exitX=1;exitY=0.5;exitDx=0;exitDy=0;endArrow=classic;endFill=1;" edge="1" parent="WIyWlLk6GJQsqaUBKTNV-1" source="Qs7cppLmvNbrVErr3oMY-149">
          <mxGeometry relative="1" as="geometry">
            <mxPoint x="1840" y="835" as="targetPoint" />
          </mxGeometry>
        </mxCell>
        <mxCell id="Qs7cppLmvNbrVErr3oMY-149" value="模板是否进行过滤词限制" style="rhombus;whiteSpace=wrap;html=1;rounded=1;" vertex="1" parent="WIyWlLk6GJQsqaUBKTNV-1">
          <mxGeometry x="1640" y="777.5" width="130" height="115" as="geometry" />
        </mxCell>
        <mxCell id="Qs7cppLmvNbrVErr3oMY-154" style="edgeStyle=orthogonalEdgeStyle;rounded=0;orthogonalLoop=1;jettySize=auto;html=1;exitX=0;exitY=0.5;exitDx=0;exitDy=0;endArrow=classic;endFill=1;" edge="1" parent="WIyWlLk6GJQsqaUBKTNV-1" source="Qs7cppLmvNbrVErr3oMY-152">
          <mxGeometry relative="1" as="geometry">
            <mxPoint x="1600" y="708" as="targetPoint" />
          </mxGeometry>
        </mxCell>
        <mxCell id="Qs7cppLmvNbrVErr3oMY-157" style="edgeStyle=orthogonalEdgeStyle;rounded=0;orthogonalLoop=1;jettySize=auto;html=1;exitX=1;exitY=0.5;exitDx=0;exitDy=0;endArrow=classic;endFill=1;entryX=1;entryY=0.5;entryDx=0;entryDy=0;" edge="1" parent="WIyWlLk6GJQsqaUBKTNV-1" source="Qs7cppLmvNbrVErr3oMY-152" target="Qs7cppLmvNbrVErr3oMY-160">
          <mxGeometry relative="1" as="geometry">
            <mxPoint x="1840" y="708" as="targetPoint" />
          </mxGeometry>
        </mxCell>
        <mxCell id="Qs7cppLmvNbrVErr3oMY-152" value="内容是否有限制的过滤词" style="rhombus;whiteSpace=wrap;html=1;rounded=1;" vertex="1" parent="WIyWlLk6GJQsqaUBKTNV-1">
          <mxGeometry x="1655" y="670" width="100" height="75" as="geometry" />
        </mxCell>
        <mxCell id="Qs7cppLmvNbrVErr3oMY-155" value="909013" style="rounded=1;whiteSpace=wrap;html=1;" vertex="1" parent="WIyWlLk6GJQsqaUBKTNV-1">
          <mxGeometry x="1480" y="680" width="120" height="43" as="geometry" />
        </mxCell>
        <mxCell id="Qs7cppLmvNbrVErr3oMY-156" value="Yes" style="text;html=1;align=center;verticalAlign=middle;resizable=0;points=[];autosize=1;" vertex="1" parent="WIyWlLk6GJQsqaUBKTNV-1">
          <mxGeometry x="1610" y="680" width="40" height="20" as="geometry" />
        </mxCell>
        <mxCell id="Qs7cppLmvNbrVErr3oMY-159" value="NO" style="text;html=1;align=center;verticalAlign=middle;resizable=0;points=[];autosize=1;" vertex="1" parent="WIyWlLk6GJQsqaUBKTNV-1">
          <mxGeometry x="1795" y="810" width="30" height="20" as="geometry" />
        </mxCell>
        <mxCell id="Qs7cppLmvNbrVErr3oMY-162" style="edgeStyle=orthogonalEdgeStyle;rounded=0;orthogonalLoop=1;jettySize=auto;html=1;exitX=0.5;exitY=1;exitDx=0;exitDy=0;endArrow=classic;endFill=1;fillColor=#0050ef;strokeColor=#001DBC;" edge="1" parent="WIyWlLk6GJQsqaUBKTNV-1" source="Qs7cppLmvNbrVErr3oMY-160">
          <mxGeometry relative="1" as="geometry">
            <mxPoint x="2010" y="780" as="targetPoint" />
            <Array as="points">
              <mxPoint x="1900" y="780" />
            </Array>
          </mxGeometry>
        </mxCell>
        <mxCell id="Qs7cppLmvNbrVErr3oMY-164" style="edgeStyle=orthogonalEdgeStyle;rounded=0;orthogonalLoop=1;jettySize=auto;html=1;exitX=0;exitY=0.75;exitDx=0;exitDy=0;endArrow=classic;endFill=1;fillColor=#e51400;strokeColor=#B20000;" edge="1" parent="WIyWlLk6GJQsqaUBKTNV-1" source="Qs7cppLmvNbrVErr3oMY-160">
          <mxGeometry relative="1" as="geometry">
            <mxPoint x="2020" y="880" as="targetPoint" />
            <Array as="points">
              <mxPoint x="1900" y="880" />
            </Array>
          </mxGeometry>
        </mxCell>
        <mxCell id="Qs7cppLmvNbrVErr3oMY-160" value="结束" style="triangle;whiteSpace=wrap;html=1;direction=north;" vertex="1" parent="WIyWlLk6GJQsqaUBKTNV-1">
          <mxGeometry x="1840" y="777.5" width="80" height="60" as="geometry" />
        </mxCell>
        <mxCell id="Qs7cppLmvNbrVErr3oMY-161" value="No" style="text;html=1;align=center;verticalAlign=middle;resizable=0;points=[];autosize=1;" vertex="1" parent="WIyWlLk6GJQsqaUBKTNV-1">
          <mxGeometry x="1795" y="680" width="30" height="20" as="geometry" />
        </mxCell>
        <mxCell id="Qs7cppLmvNbrVErr3oMY-171" value="" style="edgeStyle=orthogonalEdgeStyle;rounded=0;orthogonalLoop=1;jettySize=auto;html=1;endArrow=classic;endFill=1;" edge="1" parent="WIyWlLk6GJQsqaUBKTNV-1" source="Qs7cppLmvNbrVErr3oMY-163" target="Qs7cppLmvNbrVErr3oMY-170">
          <mxGeometry relative="1" as="geometry" />
        </mxCell>
        <mxCell id="Qs7cppLmvNbrVErr3oMY-163" value="队列:pm-send-10658831-other" style="ellipse;whiteSpace=wrap;html=1;" vertex="1" parent="WIyWlLk6GJQsqaUBKTNV-1">
          <mxGeometry x="2008" y="740" width="172" height="70" as="geometry" />
        </mxCell>
        <mxCell id="Qs7cppLmvNbrVErr3oMY-167" value="" style="edgeStyle=orthogonalEdgeStyle;rounded=0;orthogonalLoop=1;jettySize=auto;html=1;endArrow=classic;endFill=1;" edge="1" parent="WIyWlLk6GJQsqaUBKTNV-1" source="Qs7cppLmvNbrVErr3oMY-165" target="Qs7cppLmvNbrVErr3oMY-166">
          <mxGeometry relative="1" as="geometry" />
        </mxCell>
        <mxCell id="Qs7cppLmvNbrVErr3oMY-165" value="队列:pm-send-10658830-other" style="ellipse;whiteSpace=wrap;html=1;" vertex="1" parent="WIyWlLk6GJQsqaUBKTNV-1">
          <mxGeometry x="2020" y="840" width="180" height="80" as="geometry" />
        </mxCell>
        <mxCell id="Qs7cppLmvNbrVErr3oMY-169" value="" style="edgeStyle=orthogonalEdgeStyle;rounded=0;orthogonalLoop=1;jettySize=auto;html=1;endArrow=classic;endFill=1;" edge="1" parent="WIyWlLk6GJQsqaUBKTNV-1" source="Qs7cppLmvNbrVErr3oMY-166" target="Qs7cppLmvNbrVErr3oMY-168">
          <mxGeometry relative="1" as="geometry" />
        </mxCell>
        <mxCell id="Qs7cppLmvNbrVErr3oMY-166" value="HWcmOtherSend发送" style="whiteSpace=wrap;html=1;" vertex="1" parent="WIyWlLk6GJQsqaUBKTNV-1">
          <mxGeometry x="2240" y="857.5" width="120" height="45" as="geometry" />
        </mxCell>
        <mxCell id="Qs7cppLmvNbrVErr3oMY-168" value="000000" style="whiteSpace=wrap;html=1;fillColor=#008a00;strokeColor=#005700;fontColor=#ffffff;" vertex="1" parent="WIyWlLk6GJQsqaUBKTNV-1">
          <mxGeometry x="2391.5" y="860" width="88.5" height="40" as="geometry" />
        </mxCell>
        <mxCell id="Qs7cppLmvNbrVErr3oMY-173" value="" style="edgeStyle=orthogonalEdgeStyle;rounded=0;orthogonalLoop=1;jettySize=auto;html=1;endArrow=classic;endFill=1;" edge="1" parent="WIyWlLk6GJQsqaUBKTNV-1" source="Qs7cppLmvNbrVErr3oMY-170" target="Qs7cppLmvNbrVErr3oMY-172">
          <mxGeometry relative="1" as="geometry" />
        </mxCell>
        <mxCell id="Qs7cppLmvNbrVErr3oMY-170" value="CmppOtherSend发送" style="whiteSpace=wrap;html=1;" vertex="1" parent="WIyWlLk6GJQsqaUBKTNV-1">
          <mxGeometry x="2240" y="755" width="120" height="40" as="geometry" />
        </mxCell>
        <mxCell id="Qs7cppLmvNbrVErr3oMY-172" value="000000" style="whiteSpace=wrap;html=1;fillColor=#008a00;strokeColor=#005700;fontColor=#ffffff;" vertex="1" parent="WIyWlLk6GJQsqaUBKTNV-1">
          <mxGeometry x="2382" y="752.5" width="99" height="42.5" as="geometry" />
        </mxCell>
        <mxCell id="Qs7cppLmvNbrVErr3oMY-174" value="30端口" style="text;html=1;align=center;verticalAlign=middle;resizable=0;points=[];autosize=1;" vertex="1" parent="WIyWlLk6GJQsqaUBKTNV-1">
          <mxGeometry x="1085" y="1010" width="50" height="20" as="geometry" />
        </mxCell>
        <mxCell id="Qs7cppLmvNbrVErr3oMY-175" value="31端口" style="text;html=1;align=center;verticalAlign=middle;resizable=0;points=[];autosize=1;" vertex="1" parent="WIyWlLk6GJQsqaUBKTNV-1">
          <mxGeometry x="1085" y="1130" width="50" height="20" as="geometry" />
        </mxCell>
      </root>
    </mxGraphModel>
  </diagram>
</mxfile>
